<?xml version="1.0" encoding="UTF-8" standalone="no"?>
<!-- Created with Inkscape (http://www.inkscape.org/) -->

<svg
   xmlns:dc="http://purl.org/dc/elements/1.1/"
   xmlns:cc="http://creativecommons.org/ns#"
   xmlns:rdf="http://www.w3.org/1999/02/22-rdf-syntax-ns#"
   xmlns:svg="http://www.w3.org/2000/svg"
   xmlns="http://www.w3.org/2000/svg"
   xmlns:xlink="http://www.w3.org/1999/xlink"
   xmlns:sodipodi="http://sodipodi.sourceforge.net/DTD/sodipodi-0.dtd"
   xmlns:inkscape="http://www.inkscape.org/namespaces/inkscape"
   width="100"
   height="100"
   id="svg13337"
   version="1.1"
   inkscape:version="0.48.2 r9819"
   sodipodi:docname="新規ドキュメント 10">
  <defs
     id="defs13339">
    <filter
       color-interpolation-filters="sRGB"
       inkscape:collect="always"
       id="filter13207">
      <feGaussianBlur
         inkscape:collect="always"
         stdDeviation="1.1184954"
         id="feGaussianBlur13209" />
    </filter>
    <filter
       color-interpolation-filters="sRGB"
       inkscape:collect="always"
       id="filter13197"
       x="-0.32914042"
       width="1.6582808"
       y="-0.13800561"
       height="1.2760112">
      <feGaussianBlur
         inkscape:collect="always"
         stdDeviation="4.0396815"
         id="feGaussianBlur13199" />
    </filter>
    <radialGradient
       inkscape:collect="always"
       xlink:href="#linearGradient13241"
       id="radialGradient13308"
       gradientUnits="userSpaceOnUse"
       cx="-150.48973"
       cy="131.59888"
       fx="-150.48973"
       fy="131.59888"
       r="27.879004" />
    <linearGradient
       inkscape:collect="always"
       id="linearGradient13241">
      <stop
         style="stop-color:#ffffff;stop-opacity:1;"
         offset="0"
         id="stop13243" />
      <stop
         style="stop-color:#ffffff;stop-opacity:0;"
         offset="1"
         id="stop13245" />
    </linearGradient>
    <filter
       color-interpolation-filters="sRGB"
       inkscape:collect="always"
       id="filter13278">
      <feGaussianBlur
         inkscape:collect="always"
         stdDeviation="0.73829597"
         id="feGaussianBlur13280" />
    </filter>
  </defs>
  <sodipodi:namedview
     id="base"
     pagecolor="#ffffff"
     bordercolor="#666666"
     borderopacity="1.0"
     inkscape:pageopacity="0.0"
     inkscape:pageshadow="2"
     inkscape:zoom="5.5"
     inkscape:cx="6.8181818"
     inkscape:cy="32"
     inkscape:current-layer="layer1"
     showgrid="true"
     inkscape:document-units="px"
     inkscape:grid-bbox="true"
     inkscape:window-width="1920"
     inkscape:window-height="1018"
     inkscape:window-x="-8"
     inkscape:window-y="-8"
     inkscape:window-maximized="1" />
  <metadata
     id="metadata13342">
    <rdf:RDF>
      <cc:Work
         rdf:about="">
        <dc:format>image/svg+xml</dc:format>
        <dc:type
           rdf:resource="http://purl.org/dc/dcmitype/StillImage" />
        <dc:title></dc:title>
      </cc:Work>
    </rdf:RDF>
  </metadata>
  <g
     id="layer1"
     inkscape:label="Layer 1"
     inkscape:groupmode="layer"
     transform="translate(0,36)">
    <g
       style="display:inline"
       id="g13282"
       transform="translate(179.57353,-121.36674)"
       inkscape:export-filename="D:\ゆゆうさま\お絵かきノート\アイコン素材\raindrap_b.png"
       inkscape:export-xdpi="499.23294"
       inkscape:export-ydpi="499.23294">
      <path
         sodipodi:nodetypes="ssscs"
         inkscape:connector-curvature="0"
         id="path13201"
         d="m -97.374418,144.32439 c 0,18.45162 -14.416032,33.4096 -32.199112,33.4096 -17.78308,0 -32.19911,-14.95798 -32.19911,-33.4096 0,-18.45162 32.19911,-51.324899 32.19911,-51.324899 0,0 32.199112,32.873279 32.199112,51.324899 z"
         style="fill:#000000;fill-opacity:1;stroke:none;filter:url(#filter13207)" />
      <path
         style="fill:#83cadd;fill-opacity:1;stroke:none"
         d="m -97.374418,144.32439 c 0,18.45162 -14.416032,33.4096 -32.199112,33.4096 -17.78308,0 -32.19911,-14.95798 -32.19911,-33.4096 0,-18.45162 32.19911,-51.324899 32.19911,-51.324899 0,0 32.199112,32.873279 32.199112,51.324899 z"
         id="path9117"
         inkscape:connector-curvature="0"
         sodipodi:nodetypes="ssscs" />
      <path
         sodipodi:nodetypes="csccc"
         inkscape:connector-curvature="0"
         id="path13219"
         d="m -129.56009,92.443687 c 0,0 -32.21875,32.860883 -32.21875,51.312503 0,0.59785 0.0326,1.19112 0.0625,1.78125 18.65865,-21.93411 33.10456,-26.85691 51.21875,-30.34375 -8.90836,-12.36941 -19.0625,-22.750003 -19.0625,-22.750003 z"
         style="fill:#ffffff;fill-opacity:0.26181814;stroke:none" />
      <path
         transform="matrix(0.27598353,-0.37808383,0.20113661,0.16809842,-194.35093,122.77302)"
         d="m 107.30139,151.81241 c 0,11.52296 -9.462517,20.86416 -21.135123,20.86416 -11.672605,0 -21.135122,-9.3412 -21.135122,-20.86416 0,-11.52296 9.462517,-20.86416 21.135122,-20.86416 11.672606,0 21.135123,9.3412 21.135123,20.86416 z"
         sodipodi:ry="20.864159"
         sodipodi:rx="21.135122"
         sodipodi:cy="151.81241"
         sodipodi:cx="86.166267"
         id="path9121"
         style="fill:#ffffff;fill-opacity:1;stroke:none;filter:url(#filter13197)"
         sodipodi:type="arc" />
      <path
         transform="translate(21.620452,14.508461)"
         d="m -122.61073,131.59888 c 0,15.39715 -12.48185,27.879 -27.879,27.879 -15.39715,0 -27.879,-12.48185 -27.879,-27.879 0,-15.39715 12.48185,-27.87901 27.879,-27.87901 15.39715,0 27.879,12.48186 27.879,27.87901 z"
         sodipodi:ry="27.879004"
         sodipodi:rx="27.879004"
         sodipodi:cy="131.59888"
         sodipodi:cx="-150.48973"
         id="path13239"
         style="fill:url(#radialGradient13308);fill-opacity:1;stroke:none"
         sodipodi:type="arc" />
      <path
         inkscape:connector-curvature="0"
         id="path13267"
         d="m -100.91614,135.75637 c 0.29551,0.99553 0.50762,1.98203 0.62389,2.92471 2.110902,17.11544 -9.45463,32.62455 -25.84507,34.64604 -13.64852,1.68332 -26.32357,-6.52411 -31.40398,-19.19836 4.40005,13.97038 17.75587,23.29471 32.21558,21.51134 16.39045,-2.02149 27.984778,-17.53415 25.873869,-34.64958 -0.20519,-1.66375 -0.726539,-3.42034 -1.464289,-5.23415 z"
         style="opacity:0.34527684;fill:#000000;fill-opacity:1;stroke:none;filter:url(#filter13278)" />
    </g>
  </g>
</svg>
